# xmcd CD database file
#
# Track frame offsets:
#	150
#	30400
#	61010
#	77467
#	105675
#	127687
#	148945
#	192187
#	230945
#	264692
#	288297
#
# Disc length: 4371 seconds
#
# Revision: 2
# Processed by: cddbd v1.4PL0 Copyright (c) Steve Scherf et al.
# Submitted via: CDex 1.50
#
DISCID=9311110b
DTITLE=George W. Russell, Jr. Trio - Schlickness
DYEAR=2001
DGENRE=Jazz
TTITLE0=Ez Gon B Smoove
TTITLE1=Little Sunflower
TTITLE2=Ain't Nuten But a Big Ole Phat Blues Groove
TTITLE3=I Am Victorious
TTITLE4=Schlickness
TTITLE5=Layed Back
TTITLE6=Playin' Praise
TTITLE7=I Heart It On The Radio
TTITLE8=The Amazing Medley
TTITLE9=He's Waiting For You
TTITLE10=Kum Ba Ya
EXTD=YEAR: 2001
EXTT0=
EXTT1=
EXTT2=
EXTT3=
EXTT4=
EXTT5=
EXTT6=
EXTT7=
EXTT8=
EXTT9=
EXTT10=
PLAYORDER=
